<svg width="22" height="22" viewBox="0 0 22 22" fill="none" xmlns="http://www.w3.org/2000/svg"><path fill="#F91155" d="M18.0217 3.6575C15.6017 2.0075 12.6134 2.7775 11 4.66583C9.3867 2.7775 6.39837 1.99833 3.97837 3.6575C2.69503 4.5375 1.88837 6.0225 1.83337 7.59C1.70503 11.1467 4.85837 13.9975 9.67087 18.37L9.76253 18.4525C10.4592 19.085 11.5317 19.085 12.2284 18.4433L12.3292 18.3517C17.1417 13.9883 20.2859 11.1375 20.1667 7.58083C20.1117 6.0225 19.305 4.5375 18.0217 3.6575ZM11.0917 17.0042L11 17.0958L10.9084 17.0042C6.54503 13.0533 3.6667 10.4408 3.6667 7.79166C3.6667 5.95833 5.0417 4.58333 6.87503 4.58333C8.2867 4.58333 9.6617 5.49083 10.1475 6.74666H11.8617C12.3384 5.49083 13.7134 4.58333 15.125 4.58333C16.9584 4.58333 18.3334 5.95833 18.3334 7.79166C18.3334 10.4408 15.455 13.0533 11.0917 17.0042Z"></path></svg>